<?xml version="1.0" standalone="no"?>
<!DOCTYPE svg PUBLIC "-//W3C//DTD SVG 1.1//EN" "http://www.w3.org/Graphics/SVG/1.1/DTD/svg11.dtd">
<svg width="100%" height="100%" viewBox="0 0 792 160" version="1.1" xmlns="http://www.w3.org/2000/svg" xmlns:xlink="http://www.w3.org/1999/xlink" xml:space="preserve" style="fill-rule:evenodd;clip-rule:evenodd;stroke-linejoin:round;stroke-miterlimit:1.41421;">
    <g id="þÿW\d">
        <g transform="matrix(1,0,0,1,-346.609,-243.906)">
            <path d="M469.395,394C427.383,409.516 380.972,388.646 365.731,347.38C350.495,306.124 372.197,260.094 414.209,244.578" style="fill:rgb(37,175,129);fill-rule:nonzero;"/>
        </g>
        <g transform="matrix(1,0,0,1,-346.609,-243.906)">
            <path d="M489.306,402.211C548.563,402.211 596.599,384.294 596.599,362.193C596.599,340.086 548.563,322.168 489.306,322.168" style="fill:rgb(10,239,168);fill-rule:nonzero;"/>
        </g>
        <g transform="matrix(1,0,0,1,-329.919,-266.147)">
            <path d="M673.887,337.19C673.887,345.589 671.485,352.532 666.682,358.017C661.879,363.503 655.593,366.246 647.824,366.246C640.081,366.246 633.827,363.503 629.064,358.017C624.3,352.532 621.918,345.589 621.918,337.19L621.918,336.324C621.918,327.978 624.293,321.049 629.044,315.537C633.795,310.025 640.041,307.269 647.784,307.269C655.553,307.269 661.846,310.025 666.662,315.537C671.479,321.049 673.887,327.978 673.887,336.324L673.887,337.19ZM662.43,336.245C662.43,330.314 661.196,325.497 658.729,321.797C656.262,318.096 652.614,316.245 647.784,316.245C642.955,316.245 639.352,318.083 636.977,321.757C634.602,325.432 633.414,330.261 633.414,336.245L633.414,337.19C633.414,343.227 634.615,348.089 637.016,351.777C639.418,355.465 643.02,357.309 647.824,357.309C652.679,357.309 656.328,355.465 658.768,351.777C661.209,348.089 662.43,343.227 662.43,337.19L662.43,336.245Z" style="fill:black;fill-rule:nonzero;"/>
            <path d="M677.902,329.749L677.902,322.82L694.595,322.82L695.147,327.781C696.406,325.944 697.916,324.526 699.674,323.529C701.433,322.531 703.48,322.033 705.816,322.033C711.092,322.033 715.186,324.093 718.099,328.214C721.013,332.335 722.469,337.755 722.469,344.474L722.469,345.301C722.469,351.6 721.013,356.665 718.099,360.498C715.186,364.33 711.118,366.246 705.895,366.246C703.664,366.246 701.682,365.832 699.95,365.005C698.217,364.179 696.735,362.965 695.501,361.364L695.501,373.687L701.052,374.868L701.052,381.797L678.493,381.797L678.493,374.868L684.044,373.687L684.044,330.93L677.902,329.749ZM710.973,344.474C710.973,340.458 710.304,337.203 708.966,334.71C707.627,332.217 705.58,330.97 702.824,330.97C701.091,330.97 699.615,331.324 698.395,332.033C697.174,332.742 696.21,333.752 695.501,335.064L695.501,353.726C696.21,354.933 697.174,355.852 698.395,356.482C699.615,357.112 701.118,357.427 702.903,357.427C705.685,357.427 707.725,356.337 709.025,354.159C710.324,351.98 710.973,349.028 710.973,345.301L710.973,344.474Z" style="fill:black;fill-rule:nonzero;"/>
            <path d="M747.981,366.246C741.84,366.246 736.931,364.277 733.257,360.34C729.582,356.403 727.745,351.403 727.745,345.34L727.745,343.765C727.745,337.44 729.484,332.23 732.962,328.135C736.439,324.041 741.105,322.007 746.958,322.033C752.706,322.033 757.168,323.765 760.344,327.23C763.52,330.694 765.107,335.379 765.107,341.285L765.107,347.545L739.674,347.545L739.596,347.781C739.806,350.589 740.744,352.899 742.411,354.71C744.077,356.521 746.341,357.427 749.202,357.427C751.748,357.427 753.861,357.171 755.54,356.659C757.22,356.147 759.058,355.34 761.052,354.238L764.163,361.324C762.404,362.715 760.127,363.883 757.332,364.828C754.537,365.773 751.42,366.246 747.981,366.246ZM746.958,330.891C744.832,330.891 743.152,331.705 741.918,333.332C740.685,334.959 739.924,337.098 739.635,339.749L739.753,339.946L753.848,339.946L753.848,338.923C753.848,336.482 753.277,334.533 752.135,333.076C750.993,331.619 749.267,330.891 746.958,330.891Z" style="fill:black;fill-rule:nonzero;"/>
            <path d="M769.911,358.529L775.422,357.348L775.422,330.93L769.32,329.749L769.32,322.82L786.131,322.82L786.643,328.923C788.06,326.744 789.806,325.051 791.879,323.844C793.953,322.636 796.276,322.033 798.848,322.033C803.152,322.033 806.512,323.385 808.926,326.088C811.341,328.791 812.549,333.03 812.549,338.805L812.549,357.348L818.06,358.529L818.06,365.419L796.092,365.419L796.092,358.529L801.013,357.348L801.013,338.844C801.013,335.983 800.436,333.955 799.281,332.761C798.126,331.567 796.381,330.97 794.045,330.97C792.522,330.97 791.157,331.278 789.95,331.895C788.743,332.512 787.732,333.385 786.919,334.513L786.919,357.348L791.564,358.529L791.564,365.419L769.911,365.419L769.911,358.529Z" style="fill:black;fill-rule:nonzero;"/>
            <path d="M887.706,326.049L884.045,326.049L883.376,317.348C881.853,315.537 879.872,314.073 877.431,312.958C874.99,311.842 872.168,311.285 868.966,311.285C862.562,311.285 857.47,313.614 853.69,318.273C849.911,322.932 848.021,328.949 848.021,336.324L848.021,337.151C848.021,344.526 849.891,350.557 853.631,355.242C857.372,359.927 862.286,362.269 868.375,362.269C871.604,362.269 874.537,361.705 877.175,360.576C879.813,359.448 881.879,357.991 883.376,356.206L884.045,347.505L887.706,347.505L887.706,357.584C885.921,360.051 883.316,362.112 879.891,363.765C876.466,365.419 872.627,366.246 868.375,366.246C861.026,366.246 855.016,363.522 850.344,358.076C845.672,352.63 843.336,345.655 843.336,337.151L843.336,336.403C843.336,327.873 845.665,320.885 850.324,315.438C854.983,309.992 861.079,307.269 868.612,307.269C872.864,307.269 876.663,308.102 880.009,309.769C883.356,311.436 885.921,313.503 887.706,315.97L887.706,326.049Z" style="fill:black;fill-rule:nonzero;"/>
            <path d="M925.62,365.419C925.305,363.975 925.082,362.728 924.95,361.679C924.819,360.629 924.754,359.566 924.754,358.49C923.179,360.721 921.079,362.571 918.454,364.041C915.83,365.511 912.877,366.246 909.596,366.246C905.423,366.246 902.195,365.169 899.911,363.017C897.628,360.865 896.486,357.952 896.486,354.277C896.486,350.34 898.179,347.217 901.565,344.907C904.95,342.597 909.544,341.442 915.344,341.442L924.754,341.442L924.754,335.812C924.754,332.768 923.776,330.379 921.821,328.647C919.865,326.915 917.129,326.049 913.612,326.049C911.25,326.049 909.091,326.37 907.135,327.013C905.18,327.656 903.546,328.529 902.234,329.631L901.84,335.34L897.943,335.34L897.982,327.151C899.95,325.629 902.306,324.395 905.049,323.45C907.792,322.505 910.712,322.033 913.809,322.033C918.507,322.033 922.286,323.227 925.147,325.615C928.008,328.004 929.439,331.429 929.439,335.891L929.439,356.836C929.439,357.702 929.458,358.536 929.498,359.336C929.537,360.137 929.622,360.917 929.754,361.679L934.006,361.954L934.006,365.419L925.62,365.419ZM910.108,362.072C913.52,362.072 916.525,361.285 919.124,359.71C921.722,358.135 923.599,356.101 924.754,353.608L924.754,345.064L915.265,345.064C910.987,345.064 907.569,345.95 905.009,347.722C902.45,349.494 901.171,351.731 901.171,354.434C901.171,356.718 901.965,358.562 903.553,359.966C905.141,361.37 907.326,362.072 910.108,362.072Z" style="fill:black;fill-rule:nonzero;"/>
            <path d="M939.832,361.954L946.25,361.442L946.25,326.836L939.832,326.324L939.832,322.82L950.423,322.82L950.856,330.261C952.221,327.637 954.065,325.609 956.388,324.178C958.71,322.748 961.46,322.033 964.636,322.033C969.255,322.033 972.772,323.444 975.187,326.265C977.602,329.087 978.809,333.49 978.809,339.474L978.809,361.442L985.226,361.954L985.226,365.419L967.667,365.419L967.667,361.954L974.085,361.442L974.085,339.513C974.085,334.631 973.172,331.18 971.348,329.159C969.524,327.138 966.932,326.127 963.573,326.127C960.266,326.127 957.569,327 955.482,328.745C953.395,330.491 951.893,332.807 950.974,335.694L950.974,361.442L957.392,361.954L957.392,365.419L939.832,365.419L939.832,361.954Z" style="fill:black;fill-rule:nonzero;"/>
            <path d="M1010.82,362.269C1013.94,362.269 1016.7,361.377 1019.09,359.592C1021.47,357.807 1022.67,355.327 1022.67,352.151L1026.84,352.151L1026.92,352.387C1027.05,356.324 1025.48,359.618 1022.22,362.269C1018.95,364.92 1015.15,366.246 1010.82,366.246C1005.04,366.246 1000.57,364.257 997.392,360.281C994.216,356.305 992.628,351.193 992.628,344.946L992.628,343.293C992.628,337.098 994.216,332.007 997.392,328.017C1000.57,324.028 1005.03,322.033 1010.78,322.033C1014.06,322.033 1017.06,322.65 1019.79,323.883C1022.52,325.117 1024.74,326.797 1026.45,328.923L1026.64,338.214L1022.63,338.214L1021.88,330.655C1020.62,329.238 1019.05,328.116 1017.18,327.289C1015.3,326.462 1013.17,326.049 1010.78,326.049C1006.21,326.049 1002.83,327.682 1000.64,330.95C998.448,334.218 997.352,338.332 997.352,343.293L997.352,344.946C997.352,349.986 998.442,354.133 1000.62,357.387C1002.8,360.642 1006.2,362.269 1010.82,362.269Z" style="fill:black;fill-rule:nonzero;"/>
            <path d="M1054.48,366.246C1049.12,366.246 1044.69,364.284 1041.17,360.36C1037.65,356.436 1035.9,351.442 1035.9,345.379L1035.9,343.214C1035.9,337.125 1037.65,332.072 1041.15,328.056C1044.66,324.041 1048.89,322.033 1053.85,322.033C1059.07,322.033 1063.18,323.686 1066.17,326.993C1069.16,330.301 1070.66,334.71 1070.66,340.222L1070.66,344.238L1040.58,344.238L1040.58,345.379C1040.58,350.156 1041.86,354.165 1044.42,357.407C1046.98,360.648 1050.33,362.269 1054.48,362.269C1057.39,362.269 1059.88,361.862 1061.96,361.049C1064.03,360.235 1065.8,359.067 1067.27,357.545L1069.28,360.773C1067.68,362.453 1065.66,363.785 1063.22,364.769C1060.78,365.753 1057.86,366.246 1054.48,366.246ZM1053.85,326.049C1050.38,326.049 1047.46,327.381 1045.09,330.045C1042.71,332.709 1041.33,336.049 1040.93,340.064L1041.01,340.261L1065.97,340.261L1065.97,339.08C1065.97,335.379 1064.88,332.282 1062.71,329.789C1060.53,327.295 1057.58,326.049 1053.85,326.049Z" style="fill:black;fill-rule:nonzero;"/>
            <path d="M1089.28,322.82L1089.87,329.907L1089.87,330.419C1091.08,327.794 1092.73,325.74 1094.81,324.257C1096.9,322.774 1099.37,322.033 1102.24,322.033C1102.84,322.033 1103.42,322.079 1103.99,322.171C1104.55,322.262 1105.02,322.361 1105.38,322.466L1104.75,326.875L1101.25,326.639C1098.28,326.639 1095.85,327.472 1093.95,329.139C1092.04,330.806 1090.69,333.096 1089.87,336.009L1089.87,361.442L1096.29,361.954L1096.29,365.419L1078.77,365.419L1078.77,361.954L1085.19,361.442L1085.19,326.836L1078.77,326.324L1078.77,322.82L1089.28,322.82Z" style="fill:black;fill-rule:nonzero;"/>
        </g>
    </g>
</svg>
